<?xml version="1.0" standalone="no"?>
<!DOCTYPE svg PUBLIC "-//W3C//DTD SVG 20010904//EN"
 "http://www.w3.org/TR/2001/REC-SVG-20010904/DTD/svg10.dtd">
<svg version="1.0" xmlns="http://www.w3.org/2000/svg"
 width="300.000000pt" height="112.000000pt" viewBox="0 0 300.000000 112.000000"
 preserveAspectRatio="xMidYMid meet">
<metadata>
Created by potrace 1.10, written by Peter Selinger 2001-2011
</metadata>
<g transform="translate(0.000000,112.000000) scale(0.050000,-0.050000)"
fill="#000000" stroke="none">
<path d="M632 1718 c-386 -91 -380 -502 10 -699 143 -72 218 -159 218 -251 0
-213 -342 -232 -396 -22 -13 53 -27 65 -80 70 l-64 7 0 -140 c0 -162 -11 -153
236 -186 590 -78 779 423 270 719 -166 98 -226 164 -226 253 0 202 321 207
371 6 11 -44 25 -55 72 -55 l59 0 -6 135 -6 135 -100 23 c-120 28 -252 30
-358 5z"/>
<path d="M1280 1690 c0 -16 8 -30 19 -30 73 0 81 -52 81 -551 l0 -488 -50 -33
c-97 -64 -64 -88 120 -88 180 0 225 29 120 76 -50 23 -50 23 -50 311 0 158 -6
342 -13 410 -13 128 14 170 47 72 9 -27 120 -234 246 -459 l230 -408 115 -1
115 -1 0 560 0 561 50 23 c105 47 60 76 -120 76 -185 0 -204 -14 -120 -92 49
-45 50 -51 50 -362 0 -174 6 -336 13 -361 26 -97 -45 -40 -99 81 -31 68 -133
261 -228 429 l-171 305 -178 0 c-144 0 -177 -6 -177 -30z"/>
<path d="M2500 1560 l0 -160 59 0 c52 0 62 10 81 80 24 90 56 113 170 123 55
5 79 -1 78 -18 -1 -14 -3 -242 -5 -507 l-3 -481 -60 -23 c-132 -50 -71 -74
190 -74 259 0 318 23 200 76 l-50 23 0 456 c0 250 -6 475 -13 500 -31 116 202
51 242 -67 23 -65 37 -79 89 -84 l62 -7 0 162 0 161 -520 0 -520 0 0 -160z"/>
<path d="M3700 1692 c0 -15 23 -42 50 -60 l50 -33 0 -489 0 -489 -50 -33
c-119 -78 -75 -88 370 -88 l420 0 4 130 c2 72 4 155 5 185 2 102 -113 78 -134
-27 -26 -132 -74 -168 -226 -168 l-129 0 0 490 0 489 50 33 c105 69 66 88
-180 88 -183 0 -230 -6 -230 -28z"/>
<path d="M4620 1709 c0 -6 29 -40 65 -76 263 -267 446 -1073 244 -1073 -16 0
-29 -13 -29 -30 0 -25 41 -30 250 -30 247 0 336 30 209 70 -57 18 -79 88 -79
249 0 154 256 691 382 802 95 85 78 99 -122 99 -179 0 -250 -35 -140 -70 61
-19 50 -78 -55 -314 -114 -257 -104 -257 -216 2 -94 217 -108 296 -59 315 105
40 22 67 -210 67 -132 0 -240 -5 -240 -11z"/>
</g>
</svg>
